<svg enable-background="new 0 0 512 512" viewBox="0 0 512 512" xmlns="http://www.w3.org/2000/svg"><g id="Missing_data"/><g id="Data_collection"/><g id="Big_data"/><g id="Statistical_data_analysis"/><g id="Data_research"><g><g><path d="m202 109.5s-6.6-9-19.6-3.9-19.1 13.9-13.4 24.4c5.7 10.4-12.2 5.6-15 14.5-2.8 8.8 8.3 14.8 20.7 14s21.7-7.3 17.3-18.8-3.5-24.8 4.4-22.8z" fill="#570b7f"/></g><g><path d="m303.9 101.9c-3.1-55.8 49.6-97.9 103.1-82.8l-22.1 78.1z" fill="#ff9100"/></g><g><path d="m305 108.2 81-4.6 37.9 71.8c-11.3 6-24.2 9.4-37.9 9.4-43.3-.2-78.6-34-81-76.6z" fill="#00e4e0"/></g><g><path d="m413.6 19.6-22.3 78.8 80.1 17c9.1-42.7-16.9-84.2-57.8-95.8z" fill="#f7e00b"/></g><g><path d="m470.7 118.9-80.1-17 38.2 72.4c21.1-11.2 36.8-31.4 41.9-55.4z" fill="#8f00cd"/></g><g><path d="m285.3 436.3s-12.4 34.4-19.2 59.6h105.2s-.4-20.6-28.2-24.3-24.4-24.6-24.4-24.6z" fill="#570b7f"/></g><g><path d="m273.9 470.1s16.6 3.9 24.6 21.1c0 0 71.5 1.3 71.5 0s4 1.8 1.3 4.8h-105.2z" fill="#00e4e0"/></g><g><path d="m198.4 148.8c.3.5 2.5 4.9 7.6 6.1 5.3 1.2 9.1-1.9 9.6-2.3.5-7.6 1-15.2 1.4-22.8l-10.5-2.3z" fill="#ff83df"/></g><g><path d="m205.8 131.3c.1-.9.3-1.9.4-2.8l10.8 2.3c-.2 3.7-.5 7.3-.7 11-1.1.1-3.2 0-5.2-1.1-5-2.7-5.3-9-5.3-9.4z" fill="#ff59cf"/></g><g><circle cx="214.7" cy="118.5" fill="#ff83df" r="12.8"/></g><g><path d="m227.3 119.8c-.3 2.4-.6 4.5-.9 6.2-.7 4.7-1.1 6-1.8 7.3-.5.9-1.4 2.6-3.1 3.7-4 2.6-10.2.5-13.8-2.3-3.9-3.1-5.1-7.3-5.5-9.1 0 0-.2-1.1-.3-8.2 15.3 1.3 9.5.8 25.4 2.4z" fill="#ff83df"/></g><g><path d="m215.6 152.5s17.6-.5 28.9 6.9 32.6 40.8 32.6 40.8l3.4-62.1c8.6 2 17.2 4 25.8 6-2 1.9-4 3.9-6 5.8 1.4 8.3 3.1 20.1 3.9 34.2 1.6 27.4 2.6 48.1-8.5 54.8-4.8 2.9-10 2.1-15.4 1.3-23.6-3.6-37.5-24.9-41.4-31.3-16.8-14.2-24.8-34.6-23.3-56.4z" fill="#ff83df"/></g><g><path d="m198.4 148.8-34.8 116.7s57.7 47.9 95.9 4.9c-5.4-29.8-10.8-59.5-16.3-89.3-13.3-5.3-23.1-15.9-27.7-28.6-5.6-1.2-11.3-2.5-17.1-3.7z" fill="#f7e00b"/></g><g><path d="m111.3 404.6-53-13.8-18.9 78c-3.3 13.8 7.1 27 21.3 27h25.8s.3-20-11-33.8 14.1-24.2 35.9-18.7v-38.7z" fill="#570b7f"/></g><g><path d="m233.4 253c13 2.8 31.1 7 52.4 13.4 47.2 14 70.9 21.4 79.3 38.8 3.9 8.1 4.8 17.9-7.4 56.3-7.6 23.8-19.6 56.7-38.7 95.1-17.4 0-34.8 0-52.2 0 10.9-39.1 21.7-78.2 32.6-117.2-61.4-5-105.3-18.7-112.8-30.7-7.6-12.2-6.3-22.6-6.3-22.6.4-3.3 1.4-5.9 2.1-7.4 1.4-3.9 5.1-12.9 14.3-19.6 15.7-11.7 34.2-6.8 36.7-6.1z" fill="#8f00cd"/></g><g><path d="m172.1 237.1s-12 12.6-16.9 34.4c-3.3 15.1-1.9 28.5 1.7 43.5 10.2 42.9 33.3 83.3 44.7 102-32.8-5.9-65.5-11.8-98.3-17.7-1.4 19-2.8 38.1-4.1 57.1 0 0 149.9 53.2 175.8 35.9s-42.4-205.8-42.4-205.8z" fill="#8f00cd"/></g><g><path d="m166 245.2 8.3-15.8c24.9 8.9 52.1 12 79.7 8.3 2.8 9.7 5.6 19.4 8.4 29.1-10.8 1.7-21.5 3.4-32.3 5.1h-35.7z" fill="#8f00cd"/></g><g><path d="m179.4 236.2c-1.9 2-4.6 5-7.3 9.2-2.8 4.3-14.5 23.6-6.7 65.8 9.3 50.9 40 97.2 51.7 113.9-38.1-6-76.2-12-114.3-18-.3 4.2-.6 8.3-.9 12.5 43.5 5.8 87 11.5 130.5 17.3-29-47.9-92.4-169.1-38.9-188-4.7-4.2-9.4-8.4-14.1-12.7z" fill="#ff17b6"/></g><g><path d="m198.4 148.8c-3.5.6-25.5 4.8-33.5 22.5-3 6.7-2.9 12.7-2.2 21 3.3 40.5 5 60.7 16.6 68.7 10.4 7.1 23 3.9 47-2.4 18.2-4.8 44.6-13.8 74.3-32-2.5-7.4-5-14.7-7.5-22.1-29.6 6.1-59.3 12.2-88.9 18.3-3.7-12.6-7.4-25.2-11.1-37.8 5.7-10.7 7.9-23.3 5.3-36.2z" fill="#ff83df"/></g><g><path d="m218 156-21.8-1.8.7-8.6c.1-.9 1-1.6 1.9-1.4 5.6 1.1 11.4 1.7 17.4 1.5 1.4 0 2.5 1.1 2.4 2.5-.2 2.6-.4 5.2-.6 7.8z" fill="#f7e00b"/></g><g><path d="m193.2 185s2.7-21.4-1.8-34.6c2.3-.7 4.5-1.4 6.8-2.1 1.9 4.4 3.8 8.8 5.7 13.3l-2 14.4z" fill="#f7e00b"/></g><g><path d="m243.3 181.1s-14.6-13.5-21.1-28.3c-3.7-1.2-7.3-2.4-11-3.7.1 5.2.2 10.4.4 15.7l8.8 12.1c.1 0 13.3 20.2 22.9 4.2z" fill="#f7e00b"/></g><g><path d="m205.8 119.2s3.7-11 11.4-10.3c0 0 3.4-.8 4.5 4.1 1 4.9 4.1 6.2 4.1 6.2s1.4 2.2.9 5.8c0 0 9.2-2.6 8.8-10.4s-4.2-2.8-7.1-9.9-8.6-6-12-3.3c0 0-8.6-3.8-15.5.5-6.8 4.3-2.2 9.7-5.1 12.5s-4.3 7.8-1.8 13.3 8.8 9.9 8.8 9.9 6.3-8.7 3-18.4z" fill="#570b7f"/></g><g><ellipse cx="204" cy="122" fill="#ff83df" rx="4.5" ry="5.9" transform="matrix(.961 -.277 .277 .961 -25.836 61.337)"/></g><g><path d="m205.2 125.5c-1.3 0-2.4-2-2-3.1.3-.7.9-.9 1.6-.7-.3-.8-1.1-2.5-1.7-1.9-.3.3-.4 1-.4 1.4 0 .7-1 .7-1 0 0-1.3.5-2.6 1.8-2.5 1.6.1 2.4 3.1 2.6 3.7.1.4-.4.8-.7.6s-.8-.4-1.1-.3c-.4.1 0 1.4.7 1.8.2.1.4.2.6-.2.2-.2.5-.3.7-.1.6.3-.3 1.3-1.1 1.3z" fill="#570b7f"/></g><g><ellipse cx="219.3" cy="131.5" fill="#570b7f" rx="2.7" ry="1.6" transform="matrix(.153 -.988 .988 .153 55.653 328.031)"/></g><g><path d="m92.3 399.7s-16.9 24.6-34.1 24.1c0 0-15.6 41.2-10 52.9s37.6 10.2 37.6 10.2 4.1 3.8.8 9.1h-26.9c-14.5 0-25.1-13.7-21.5-27.7l20.1-77.3z" fill="#00e4e0"/></g><g><g><path d="m299.6 106.1c-17.6 0-30.8-15.7-28.1-32.8 2.4-15.5 16.9-26 32.4-23.6 15.4 2.4 26 17 23.6 32.4-2.2 14.3-14.5 24-27.9 24zm-.1-51.8c-11 0-21.2 8-23 19.7-2 12.7 6.7 24.7 19.4 26.7s24.7-6.7 26.7-19.4c2.2-14.1-8.7-27-23.1-27z" fill="#570b7f"/></g><g><path d="m292.2 126.8c-1.5 0-2.7-1.4-2.5-2.9l3.3-21.1c.2-1.4 1.5-2.3 2.9-2.1s2.3 1.5 2.1 2.9l-3.3 21.1c-.3 1.2-1.3 2.1-2.5 2.1z" fill="#570b7f"/></g><g><path d="m283.4 117.2h12.5v46.1h-12.5z" fill="#f7e00b" transform="matrix(.988 .156 -.156 .988 25.351 -43.365)"/></g></g><g><path d="m279.9 148.4s-3-13.8-1.8-18.3 9.9-11.4 13.2-8-6.1 11.3-6.1 11.3.7 8.9-5.3 15z" fill="#ff83df"/></g><g><path d="m301.5 118.5s-4.8.7-7.8 4.8c-3 4.2 3.2 4.4 3.2 4.4s-4.7 1.7-4.7 4.9 3.1 2.6 3.1 2.6-4.5 1.8-4.3 4.8c.1 3 4.3 1.9 4.3 1.9s-5.2.2-4.3 4.1c.9 3.8 12.9.6 15.5-1.8s-2.8-3.8-2.8-3.8 6.1-5.4.3-6.4c.1-.1 2.2-1.8 2.1-4.7-.1-2.4-1.8-3.8-2.1-4 2.1-1.3 2.6-4.1 1.6-5.6-1-1.3-2.6-1.7-4.1-1.2z" fill="#ff83df"/></g><g><path d="m296.8 128.2c-.5 0-.7-.7-.2-1 .2-.1 4.6-2.2 7.2-2.5.3 0 .5.2.6.4 0 .3-.2.5-.4.6-2.8.3-6.9 2.5-7.2 2.5z" fill="#570b7f"/></g><g><path d="m295.2 135.6c-.6 0-.7-.8-.2-1 .2-.1 4.9-1.7 8.8-1.4.7.1.6 1.1-.1 1-3.8-.2-8.3 1.4-8.5 1.4z" fill="#570b7f"/></g><g><path d="m295.2 142.3c-.6 0-.7-.8-.1-1 .2-.1 5.4-1.5 8.5-1.6.7 0 .7 1 0 1-3.3.1-8.2 1.6-8.4 1.6z" fill="#570b7f"/></g><g><path d="m294.8 148.1c-.3 0-.5-.2-.5-.5s.2-.5.5-.5c0 0 3.7-.1 6.5-1.2.3-.1.5 0 .6.3s0 .5-.3.6c-1.9.8-5 1.3-6.8 1.3z" fill="#570b7f"/></g><g><path d="m279.4 207.3s11.1-10.4 17.2-10.2 10.3-4.7 10.3 0-7.5 7.8-7.5 7.8 6.9 1.2 11.9-1.7 7.7-4.9 9.2-3.6c1.6 1.3-3.8 7.2-3.8 7.2s5.8-5.8 7.4-3.6-5.3 8.8-5.3 8.8 5.6-4.3 7.1-1.7-7.7 9.4-7.7 9.4 7.7-4.3 7.1 0-15.5 14.6-22.6 16.9-26.3 1.3-26.3 1.3-6.8-23.1 3-30.6" fill="#ff83df"/></g><g><path d="m299.5 205.5c-.5 0-.7-.6-.3-.9l5.3-3.5c.2-.2.5-.1.7.1s.1.5-.1.7l-3.9 2.5h3.6c.7 0 .7 1 0 1-1.7.1-5.2.1-5.3.1z" fill="#570b7f"/></g><g><path d="m249.2 214.1c-.6 0-.7-.8-.1-1l26.7-6.7c1.2-1 11.6-9.9 17.9-10.3 6.4-.4 10.9-1.5 10.9-1.5.6-.2.9.8.2 1 0 0-4.7 1.1-11.1 1.5-6.3.4-17.3 10.1-17.4 10.2s-27 6.8-27.1 6.8z" fill="#570b7f"/></g><g><path d="m307.7 212.1c3.8-.7 8.7-5.5 8.8-5.6.2-.2.5-.2.7 0s.2.5 0 .7-5.2 5-9.3 5.8c-.6.2-.8-.8-.2-.9z" fill="#570b7f"/></g><g><path d="m310.5 218.1c5-2 8-6.3 8-6.3.2-.2.5-.3.7-.1s.3.5.1.7c-.1.2-3.2 4.6-8.5 6.7-.6.1-.9-.8-.3-1z" fill="#570b7f"/></g><g><path d="m308.8 226.4c4.5-1.6 9.1-6.9 9.1-7 .2-.2.5-.2.7-.1.2.2.2.5.1.7-.2.2-4.8 5.6-9.5 7.3-.7.2-1.1-.7-.4-.9z" fill="#570b7f"/></g><g><path d="m277 240.2c-.5 0-.7-.7-.3-.9 5.5-3.4 5.2-3.3 5.5-3.2.1 0 10 2 15.1 1.1.3-.1.5.1.6.4s-.1.5-.4.6c-5 .9-13.9-.7-15.3-1-5.4 3.2-5 3-5.2 3z" fill="#570b7f"/></g><g><path d="m277.7 205.5c-.2 0-.3-.1-.4-.2-1.8-2.6-.7-5.2-.7-5.3.1-.3.4-.4.7-.3s.4.4.3.7c0 .1-.9 2.3.6 4.3.2.3-.1.8-.5.8z" fill="#570b7f"/></g><g><path d="m190 245.4c-.3 0-.5-.3-.5-.6 1.7-15.4 14.4-22.4 14.6-22.5s.5 0 .7.2c.1.2 0 .5-.2.7-.1.1-12.4 6.8-14 21.7-.1.4-.4.5-.6.5z" fill="#570b7f"/></g><g><path d="m243.3 181.6c-.3 0-.5-.2-.5-.5 0-.1-1.1-11.7-6.7-19.2-.2-.2-.1-.5.1-.7s.5-.1.7.1c5.8 7.7 6.9 19.2 6.9 19.7.1.3-.2.6-.5.6z" fill="#570b7f"/></g><g><path d="m237.7 443.9c-.2 0-.3-.1-.4-.2-10.3-15.5-35.6-26-35.9-26.1s-.4-.4-.3-.7.4-.4.7-.3 25.8 10.8 36.3 26.5c.3.3 0 .8-.4.8z" fill="#570b7f"/></g><g><path d="m232.4 295 86.8 29.3-39.5 128.2-2.7-16.2 32.9-106.4-70-17.1z" fill="#ff17b6"/></g><g><path d="m247.6 332.7-20.7-50c-.1-.3-.6 1 8-19.1.1-.3.4-.4.7-.3s.4.4.3.7l-7.9 18.6 20.6 49.8c.2.5-.7.9-1 .3z" fill="#570b7f"/></g><g><path d="m279.7 457.1c-.3 0-.5-.2-.5-.5-.9-9.7-4.9-28.4-5-28.6-.1-.6.8-.9 1-.2 0 .2 4.1 19 5 28.7 0 .3-.2.6-.5.6z" fill="#570b7f"/></g><g><path d="m299.3 339.8c-.4 0-.7-.5-.4-.8.1-.2 14.9-16.9 33-19.1.7-.1.8.9.1 1-17.7 2.1-32.2 18.6-32.3 18.7s-.2.2-.4.2z" fill="#570b7f"/></g></g></g><g id="Data_mining"/><g id="Team_doing_data_analytics"/><g id="Cloud_computing_security"/><g id="Data_visualization"/><g id="Data_analytics_comparison"/></svg>