<?xml version="1.0" encoding="iso-8859-1"?>
<!-- Generator: Adobe Illustrator 27.7.0, SVG Export Plug-In . SVG Version: 6.00 Build 0)  -->
<svg xmlns="http://www.w3.org/2000/svg" xmlns:xlink="http://www.w3.org/1999/xlink" version="1.1" id="Layer_1" x="0px" y="0px" viewBox="0 0 512 512" style="enable-background:new 0 0 512 512;" xml:space="preserve">
<g>
	<g>
		<path style="fill:#FFFFFF;" d="M256,512c-33.364,0-65.792-6.318-96.389-18.779c-0.083-0.031-0.165-0.063-0.248-0.097    c-43.271-17.651-80.94-46.883-108.934-84.535C21.916,370.239,4.779,324.822,0.87,277.247C0.293,270.183,0,263.036,0,256    c0-41.027,9.417-80.225,27.99-116.504c17.711-34.596,43.56-65.225,74.752-88.577C147.243,17.607,200.238,0,256,0    c25.186,0,50.062,3.649,73.94,10.846c41.663,12.546,79.757,35.808,110.16,67.27c30.465,31.525,52.425,70.481,63.502,112.653    C509.174,211.949,512,233.897,512,256c0,40.897-9.884,81.581-28.582,117.653c-18.09,34.9-44.446,65.655-76.219,88.944    C363.116,494.916,310.832,512,256,512z"/>
	</g>
	<g>
		<g>
			<g>
				<path style="fill:#6E72FF;" d="M378.088,256.792c0,19.385,120.118,37.452,115.84,55.538v0.009      c-8.088,34.349-23.443,65.88-44.327,92.933c-44.7,57.897-110.473,27.062-189.273,27.062S107.099,463.17,62.399,405.273      c-19.433-25.162-34.071-54.23-42.532-85.809c-0.12-0.434,3.895-2.446,3.782-2.877c-0.131-0.5-4.389,0.582-4.518,0.079      c-3.734-14.61-6.15-29.746-7.114-45.263c-0.032-0.481,4.365-2.996,4.338-3.477c-0.03-0.531-4.485,0.971-4.51,0.44      c-0.201-4.097-0.306-8.222-0.306-12.366c0-2.588,0.038-5.166,0.124-7.735c0.016-0.682,4.582-4.934,4.61-5.614      c0.022-0.528-4.496,2.516-4.467,1.985c1.872-41.004,13.856-79.383,33.508-112.69c16.772-28.424,116.162,44.905,142.6,25.372      c34.449-25.452-1.208-140.138,43.743-144.584c8.002-0.793,16.129-1.194,24.341-1.194c69.986,0,133.106,29.412,177.663,76.546      C475.068,131.879,378.088,191.772,378.088,256.792z"/>
			</g>
		</g>
		<g>
			<g>
				<g>
					<path style="fill:#FFC063;" d="M283.492,111.482c0,66.252-53.705,119.957-119.957,119.957       c-59.272,0-108.508-42.991-118.219-99.493C83.942,66.487,152.21,20.593,231.659,12.734       C262.98,34.382,283.492,70.535,283.492,111.482z"/>
				</g>
			</g>
			<g>
				<g>
					<path style="fill:#FFC063;" d="M500.46,256c0,19.385-2.254,38.245-6.532,56.331v0.009c-17.484,9.95-37.71,15.642-59.272,15.642       c-66.253,0-119.957-53.704-119.957-119.947c0-65.918,53.17-119.422,118.964-119.948C475.068,131.879,500.46,190.979,500.46,256       z"/>
				</g>
			</g>
			<g>
				<g>
					<g>
						<g>
							<g>
								<g>
									<path style="fill:#412945;" d="M409.756,120.749H97.935L76.682,223.492l21.253,116.909H233.23l-4.66,33.656h-10.4           l-4.428,16.828h108.607v-16.828h-19.772l5.517-33.656h101.663c1.431,0,2.602-1.162,2.602-2.602V123.35           C412.358,121.92,411.187,120.749,409.756,120.749z"/>
								</g>
							</g>
						</g>
						<g>
							<g>
								<g>
									<g>
										<g>
											<path style="fill:#B5E1E8;" d="M395.167,324.027h-267.64c-1.177,0-2.132-0.954-2.132-2.132V139.259             c0-1.178,0.955-2.132,2.132-2.132h267.64c1.177,0,2.132,0.955,2.132,2.132v182.635             C397.299,323.072,396.344,324.027,395.167,324.027z"/>
										</g>
									</g>
								</g>
							</g>
						</g>
						<g>
							<g>
								<g>
									<g>
										<g>
											<path style="fill:#F8BDFF;" d="M97.935,120.749v219.652H70.426c-1.439,0-2.602-1.162-2.602-2.602V123.35             c0-1.431,1.162-2.602,2.602-2.602H97.935z"/>
										</g>
									</g>
								</g>
							</g>
						</g>
					</g>
					<g>
						<g>
							<g>
								<g>
									<path style="fill:#E36352;" d="M82.605,164.385c-0.133,0.783-0.878,1.308-1.652,1.174c-4.536-0.754-8.928-1.07-13.13-0.955           c-7.105,0.172-13.646,1.585-19.337,4.182c-10.561,4.822-18.163,14.085-19.843,24.169           c-0.735,4.393-0.411,8.795-0.067,13.464c0.248,3.323,0.506,6.761,0.334,10.179c-0.477,9.597-4.478,19.175-10.982,26.26           c-1.967,2.149-4.077,3.953-6.264,5.405c0.028-1.213,0.076-2.416,0.143-3.628c1.385-1.07,2.721-2.321,4.011-3.715           c6.064-6.608,9.788-15.518,10.227-24.465c0.162-3.237-0.086-6.589-0.325-9.826c-0.334-4.632-0.688-9.416,0.095-14.143           c1.833-11.01,10.065-21.094,21.486-26.308c6.054-2.769,13.006-4.259,20.521-4.45c4.364-0.105,8.919,0.229,13.598,1.003           C82.204,162.867,82.73,163.602,82.605,164.385z"/>
								</g>
							</g>
						</g>
						<g>
							<g>
								<g>
									<path style="fill:#FFC063;" d="M83.618,193.863c-0.105,0.563-0.525,0.974-1.031,1.108c-0.201,0.057-0.43,0.067-0.649,0.029           c-4.708-0.898-9.635-0.229-14.114,1.614c-6.885,2.846-12.71,8.47-15.05,15.451c-1.967,5.882-1.872,12.605-1.776,19.117           c0.143,9.559,0.286,19.442-6.178,26.728c-5.319,6.007-13.226,7.955-20.875,9.826c-2.53,0.621-5.147,1.26-7.582,2.034           c-1.509,0.487-2.96,1.031-4.345,1.633c-0.067-1.012-0.124-2.024-0.172-3.037c1.175-0.487,2.397-0.926,3.648-1.327           c2.531-0.802,5.195-1.452,7.764-2.082c7.553-1.852,14.696-3.609,19.423-8.947c5.72-6.455,5.596-15.365,5.453-24.79           c-0.096-6.742-0.201-13.722,1.929-20.063c2.769-8.279,9.654-14.735,17.761-17.676c4.66-1.7,9.731-2.235,14.658-1.289           c0.239,0.038,0.449,0.143,0.621,0.287C83.503,192.794,83.713,193.329,83.618,193.863z"/>
								</g>
							</g>
						</g>
						<g>
							<g>
								<g>
									<path style="fill:#B5E1E8;" d="M84.83,237.503c-0.468,0.64-1.366,0.773-2.005,0.306c-1.117-0.821-2.416-1.232-3.772-1.299           c-3.6-0.201-7.697,1.939-10.437,4.947c-0.267,0.296-0.535,0.602-0.793,0.907c-7,8.423-8.06,20.33-9.072,31.856           l-0.124,1.384c-1.127,12.701-3.715,26.709-14.276,34.339c-4.545,3.275-9.95,4.841-15.183,6.35l-1.442,0.42           c-2.559,0.745-5.271,1.595-7.859,2.75c-0.258-0.936-0.497-1.862-0.735-2.798c2.597-1.127,5.271-1.967,7.792-2.703           l1.451-0.42c4.994-1.442,10.16-2.932,14.295-5.92c9.635-6.952,12.032-20.216,13.102-32.276l0.124-1.385           c1.05-11.841,2.235-25.258,10.6-34.434c0.42-0.458,0.859-0.898,1.327-1.318c2.989-2.683,6.923-4.574,10.705-4.603           c2.11-0.01,4.173,0.554,5.997,1.891C85.155,235.966,85.298,236.863,84.83,237.503z"/>
								</g>
							</g>
						</g>
					</g>
				</g>
				<g>
					<g>
						<g>
							<g>
								<rect x="142.568" y="163.657" style="fill:#F7EDE5;" width="11.215" height="24.381"/>
							</g>
						</g>
					</g>
					<g>
						<g>
							<g>
								<rect x="142.568" y="204.13" style="fill:#F7EDE5;" width="11.215" height="24.381"/>
							</g>
						</g>
					</g>
					<g>
						<g>
							<g>
								<rect x="142.568" y="244.602" style="fill:#F7EDE5;" width="11.215" height="24.381"/>
							</g>
						</g>
					</g>
					<g>
						<g>
							<g>
								<path style="fill:#F7EDE5;" d="M169.874,183.65c0,2.154-1.746,3.901-3.901,3.901c-2.154,0-3.901-1.747-3.901-3.901          c0-2.154,1.746-3.901,3.901-3.901C168.128,179.749,169.874,181.495,169.874,183.65z"/>
							</g>
						</g>
					</g>
					<g>
						<g>
							<g>
								<path style="fill:#F7EDE5;" d="M169.874,224.122c0,2.154-1.746,3.901-3.901,3.901c-2.154,0-3.901-1.747-3.901-3.901          s1.746-3.901,3.901-3.901C168.128,220.221,169.874,221.967,169.874,224.122z"/>
							</g>
						</g>
					</g>
					<g>
						<g>
							<g>
								<path style="fill:#F7EDE5;" d="M169.874,264.594c0,2.154-1.746,3.901-3.901,3.901c-2.154,0-3.901-1.747-3.901-3.901          c0-2.155,1.746-3.901,3.901-3.901C168.128,260.693,169.874,262.44,169.874,264.594z"/>
							</g>
						</g>
					</g>
				</g>
			</g>
			<g>
				<g>
					<g>
						<g>
							<g>
								<g>
									<path style="fill:#F7EDE5;" d="M335.377,66.865H141.393c-1.604,0-2.903,1.072-2.903,2.394v72.265           c0,1.322,1.3,2.394,2.903,2.394h39.394l-11.821,13.4l31.154-13.4h135.257c1.604,0,2.904-1.072,2.904-2.394V69.259           C338.28,67.937,336.98,66.865,335.377,66.865z"/>
								</g>
							</g>
						</g>
					</g>
				</g>
				<g>
					<g>
						<path style="fill:#412945;" d="M168.078,110.675V97.401c0-3.611,1.926-5.743,5.365-5.743c3.438,0,5.364,2.132,5.364,5.743        v2.476h-2.545v-2.648c0-2.028-1.066-3.129-2.751-3.129c-1.685,0-2.751,1.1-2.751,3.129v13.618c0,2.029,1.066,3.13,2.751,3.13        c1.685,0,2.751-1.1,2.751-3.13v-3.37h2.545v3.199c0,3.61-1.926,5.743-5.364,5.743        C170.038,116.418,168.078,114.285,168.078,110.675z"/>
					</g>
					<g>
						<path style="fill:#412945;" d="M188.163,110.468V97.573c0-3.817,1.96-5.914,5.502-5.914c3.576,0,5.536,2.097,5.536,5.914        v12.895c0,3.817-1.96,5.95-5.536,5.95C190.124,116.418,188.163,114.285,188.163,110.468z M196.52,110.64V97.401        c0-2.201-0.963-3.301-2.855-3.301s-2.82,1.1-2.82,3.301v13.239c0,2.235,0.929,3.336,2.82,3.336S196.52,112.876,196.52,110.64z        "/>
					</g>
					<g>
						<path style="fill:#412945;" d="M209.074,116.073V92.003h5.502c3.611,0,5.433,1.959,5.433,5.845v12.38        c0,3.886-1.822,5.846-5.433,5.846H209.074z M211.756,113.632h2.751c1.926,0,2.82-0.963,2.82-3.301v-12.62        c0-2.339-0.894-3.267-2.82-3.267h-2.751V113.632z"/>
					</g>
					<g>
						<path style="fill:#412945;" d="M229.916,116.073V92.003h2.682v24.071H229.916z"/>
					</g>
					<g>
						<path style="fill:#412945;" d="M242.744,116.073V92.003h3.439l5.433,17.193V92.003h2.441v24.071h-2.785l-6.087-19.567v19.567        H242.744z"/>
					</g>
					<g>
						<path style="fill:#412945;" d="M263.964,110.468V97.573c0-3.817,1.891-5.914,5.433-5.914c3.576,0,5.467,2.063,5.467,5.914        v1.96h-2.544v-2.132c0-2.201-0.963-3.301-2.854-3.301c-1.891,0-2.82,1.1-2.82,3.301v13.274c0,2.201,0.929,3.301,2.82,3.301        c1.891,0,2.854-1.1,2.854-3.301v-5.399h-2.648v-2.441h5.192v7.634c0,3.851-1.891,5.95-5.467,5.95        C265.855,116.418,263.964,114.319,263.964,110.468z"/>
					</g>
					<g>
						<path style="fill:#412945;" d="M284.772,116.073v-3.473h2.716v3.473H284.772z"/>
					</g>
					<g>
						<path style="fill:#412945;" d="M297.943,116.073v-3.473h2.717v3.473H297.943z"/>
					</g>
					<g>
						<path style="fill:#412945;" d="M311.116,116.073v-3.473h2.717v3.473H311.116z"/>
					</g>
				</g>
			</g>
			<g>
				<g>
					<g>
						<path style="fill:#F7EDE5;" d="M360.86,266.867c0,0-47.869,39.663-55.915,65.263c-8.046,25.6-8.046,51.931-8.046,51.931        l25.6,53.394l114.834-21.943c0,0,12.025-89.159-28.365-156.122L360.86,266.867z"/>
					</g>
				</g>
				<g>
					<g>
						<g>
							<path style="fill:#FF9582;" d="M421.975,182.223c0,12.586-5.067,24.418-12.487,33.423l-0.519,43.745         c0,0-51.04,30.882-55.911,25.038c-4.88-5.854,7.802-17.561,7.802-17.561v-21.82c-14.954,0.143-29.975-2.97-34.788-4.832         c-3.571-1.385-5.548-9.664-6.618-19.786c-0.095-0.955-0.191-1.919-0.277-2.903c-0.792-9.215-0.926-19.499-0.869-27.33         c-0.401-2.597-0.602-5.261-0.602-7.974c0-28.791,23.338-52.129,52.129-52.129         C398.637,130.094,421.975,153.432,421.975,182.223z"/>
						</g>
					</g>
					<g>
						<g>
							<path style="fill:#E36352;" d="M435.139,177.31c-2.572,0-5.074,0.294-7.483,0.833c0.686-8.131-0.548-17.094-5.681-26.191         c-13.894-24.618-54.612-38.522-98.013-14.381c0,0-3.657,20.235,7.067,29.01c10.733,8.776,19.509,9.75,19.509,9.75         s-6.092,9.511,0.248,15.116c8.642,7.659,14.333,5.023,15.747,4.144c1.318-2.244,3.189-4.249,5.586-5.835         c4.049-2.664,9.588-3.562,13.732-1.06c4.603,2.779,6.207,8.986,4.994,14.219c-1.213,5.233-4.669,9.645-8.346,13.56         c-0.764,0.821-1.576,1.633-2.473,2.292c1.977,2.129,4.24,4.259,6.837,6.331c17.064,13.655,22.295,16.179,22.295,16.179         s2.914-0.821,3.17-4.448c6.046,5.436,14.041,8.747,22.811,8.747c18.851,0,34.133-15.282,34.133-34.133         S453.99,177.31,435.139,177.31z"/>
						</g>
					</g>
					<g>
						<g>
							<g>
								<path style="fill:#412945;" d="M334.202,194.743c0,3.299-1.856,5.973-4.145,5.973c-2.289,0-4.145-2.674-4.145-5.973          c0-3.299,1.856-5.973,4.145-5.973C332.346,188.77,334.202,191.444,334.202,194.743z"/>
							</g>
						</g>
						<g>
							<g>
								<g>
									<path style="fill:#412945;" d="M331.448,212.914c-3.123,3.638-7.372,6.274-11.994,7.515           c-0.095-0.955-0.191-1.919-0.277-2.903c3.896-1.136,7.448-3.409,10.094-6.474c0.516-0.602,1.423-0.668,2.025-0.153           C331.888,211.415,331.964,212.312,331.448,212.914z"/>
								</g>
							</g>
						</g>
						<g>
							<g>
								<g>
									<path style="fill:#412945;" d="M385.187,203.555c-2.255-1.957-5.328-2.885-8.294-2.633c1.579-2.586,3.636-4.88,6.073-6.691           c0.635-0.472,0.768-1.369,0.296-2.004c-0.474-0.636-1.371-0.766-2.004-0.296c-6.12,4.548-10.116,11.802-10.689,19.406           c-0.059,0.789,0.533,1.476,1.321,1.536c0.036,0.003,0.073,0.004,0.109,0.004c0.742,0,1.37-0.573,1.427-1.325           c0.192-2.553,0.817-5.062,1.812-7.415c0.056-0.011,0.113-0.018,0.169-0.036c2.675-0.862,5.778-0.225,7.901,1.618           c0.271,0.235,0.606,0.351,0.938,0.351c0.401,0,0.8-0.167,1.083-0.493C385.848,204.978,385.783,204.073,385.187,203.555z"/>
								</g>
							</g>
							<g>
								<g>
									<path style="fill:#412945;" d="M335.253,180.808c-2.906-2.124-6.744-2.951-10.266-2.22           c-0.775,0.161-1.272,0.92-1.111,1.694c0.161,0.775,0.93,1.275,1.695,1.111c2.743-0.571,5.729,0.075,7.993,1.728           c0.254,0.187,0.55,0.276,0.844,0.276c0.441,0,0.877-0.203,1.157-0.587C336.031,182.172,335.892,181.276,335.253,180.808z"/>
								</g>
							</g>
						</g>
					</g>
				</g>
			</g>
			<g>
				<g>
					<g>
						<g>
							<path style="fill:#B5E1E8;" d="M449.601,405.273C404.901,463.17,334.8,500.46,256,500.46s-148.901-37.29-193.601-95.186         H449.601z"/>
						</g>
					</g>
					<g>
						<g>
							<g>
								<polygon style="fill:#412945;" points="202.545,400.884 93.074,401.859 87.399,406.572 24.566,264.107 132.815,261.185                   "/>
							</g>
						</g>
						<g>
							<g>
								<polygon style="fill:#6E72FF;" points="273.981,406.734 87.466,406.734 87.399,406.572 89.414,399.505 202.2,398.512           203.766,401.616 265.931,401.616         "/>
							</g>
						</g>
						<g>
							<g>
								<polygon style="fill:#F8BDFF;" points="38.217,272.396 91.855,394.301 186.453,386.011 128.427,270.446         "/>
							</g>
						</g>
					</g>
					<g>
						<g>
							<g>
								<g>
									<path style="fill:#FF9582;" d="M296.899,384.061h-83.627c-12.678-2.194-17.067-7.558-27.551-12.922           c-10.484-5.364-18.042-2.438-18.042-2.438c-6.095-0.731-7.802,3.657-7.802,3.657c-7.558-0.488-8.29,3.657-8.29,3.657           c-3.413,0.731-4.145,8.29-4.145,8.29s-6.095,0.487-7.802,3.413c-1.707,2.926,9.021,2.926,14.385,4.145           c5.364,1.219,10.484,6.339,21.699,12.678c11.215,6.339,20.968,7.802,20.968,7.802s31.695,10.24,49.737,11.215           c18.042,0.975,73.63,5.851,73.63,5.851L296.899,384.061z"/>
								</g>
							</g>
							<g>
								<g>
									<path style="fill:#412945;" d="M180.853,371.071c-0.384-0.104-9.456-2.576-12.979-3.305           c-2.356-0.49-4.969,0.017-6.822,1.317c-0.94,0.661-1.601,1.492-1.926,2.39c-2.041-0.001-3.941,0.269-5.435,0.98           c-1.441,0.687-2.42,1.734-2.935,3.096c-0.752,0.196-1.332,0.527-1.67,1.034c-1.617,2.426-2.279,5.628-2.499,6.974           c-4.248,0.685-7.707,1.912-7.898,4.077c-0.294,3.335,4.497,3.832,9.569,4.359c3.24,0.337,6.911,0.718,9.119,1.822           c0.137,0.068,0.283,0.101,0.426,0.101c0.351,0,0.687-0.193,0.855-0.528c0.236-0.472,0.045-1.045-0.427-1.281           c-2.52-1.26-6.209-1.643-9.777-2.013c-3.56-0.37-7.992-0.83-7.863-2.291c0.151-1.705,8.912-3.153,18.904-3.153           c0.208,0,0.416,0.001,0.625,0.002c0.525,0,0.952-0.423,0.955-0.949c0.003-0.527-0.421-0.958-0.949-0.96           c-2.842-0.029-7.378,0.042-11.548,0.539c0.272-1.399,0.884-3.817,2.097-5.638c0.818-1.228,8.329,0.083,16.077,2.809           c0.495,0.173,1.042-0.087,1.218-0.584c0.175-0.497-0.087-1.043-0.584-1.218c-2.666-0.938-9.714-3.258-14.337-3.323           c0.361-0.463,0.836-0.85,1.463-1.149c5.698-2.713,19.286,2.197,19.422,2.247c0.495,0.179,1.044-0.074,1.225-0.569           c0.181-0.495-0.074-1.043-0.569-1.225c-0.406-0.148-7.131-2.577-13.373-3.073c0.227-0.325,0.539-0.635,0.933-0.912           c1.412-0.993,3.507-1.388,5.336-1.009c3.465,0.716,12.77,3.252,12.864,3.277c0.503,0.141,1.033-0.16,1.172-0.671           C181.663,371.735,181.362,371.21,180.853,371.071z"/>
								</g>
							</g>
						</g>
						<g>
							<g>
								<path style="fill:#F7EDE5;" d="M366.385,316.282l-75.418,64.691l10.728,53.638c0,0,43.236-8.452,54.938-11.703          c11.703-3.251,57.864-27.632,57.864-27.632L366.385,316.282z"/>
							</g>
						</g>
						<g>
							<g>
								<path style="fill:#412945;" d="M301.693,436.044c-0.676,0-1.269-0.477-1.404-1.152l-10.727-53.639          c-0.096-0.48,0.06-0.976,0.414-1.316c2.95-2.823,72.327-69.172,80.42-72.459c0.733-0.299,1.568,0.055,1.866,0.788          c0.297,0.733-0.055,1.568-0.788,1.866c-6.24,2.535-58.546,51.817-78.949,71.331l10.317,51.587          c7.775-0.877,49.443-6.366,83.295-26.329c0.681-0.402,1.559-0.176,1.961,0.506c0.402,0.681,0.175,1.559-0.506,1.961          c-37.874,22.336-85.297,26.807-85.771,26.85C301.778,436.042,301.736,436.044,301.693,436.044z"/>
							</g>
						</g>
					</g>
				</g>
				<g>
					<g>
						<g>
							<g>
								<g>
									<g>
										<path style="fill:#F7EDE5;" d="M379.994,80.689l15.485,5.405c0.904,0.316,0.92,1.589,0.023,1.926l-15.532,5.849            c-0.276,0.104-0.494,0.322-0.598,0.598l-5.885,15.629c-0.333,0.885-1.585,0.885-1.918,0l-5.885-15.629            c-0.104-0.276-0.322-0.494-0.598-0.598l-15.497-5.836c-0.9-0.339-0.879-1.62,0.032-1.929l15.934-5.412            c0.301-0.102,0.538-0.339,0.641-0.641l5.4-15.896c0.311-0.915,1.6-0.931,1.932-0.023l5.842,15.942            C379.475,80.363,379.705,80.588,379.994,80.689z"/>
									</g>
								</g>
							</g>
						</g>
					</g>
					<g>
						<g>
							<g>
								<g>
									<g>
										<path style="fill:#F7EDE5;" d="M78.646,127.026l13.287,4.638c0.776,0.271,0.789,1.363,0.02,1.653l-13.327,5.019            c-0.237,0.089-0.424,0.276-0.513,0.513l-5.05,13.411c-0.286,0.759-1.36,0.759-1.646,0l-5.05-13.411            c-0.089-0.237-0.276-0.424-0.513-0.513l-13.298-5.007c-0.772-0.291-0.754-1.39,0.027-1.655l13.672-4.644            c0.259-0.088,0.462-0.291,0.55-0.55l4.633-13.64c0.267-0.785,1.373-0.798,1.658-0.02l5.013,13.679            C78.201,126.745,78.397,126.939,78.646,127.026z"/>
									</g>
								</g>
							</g>
						</g>
					</g>
					<g>
						<g>
							<g>
								<g>
									<g>
										<path style="fill:#F7EDE5;" d="M467.795,266.894l14.539,5.074c0.849,0.296,0.864,1.492,0.022,1.809l-14.583,5.492            c-0.259,0.098-0.464,0.302-0.561,0.561l-5.526,14.674c-0.313,0.831-1.488,0.831-1.801,0l-5.526-14.674            c-0.098-0.259-0.302-0.464-0.561-0.561l-14.55-5.479c-0.845-0.318-0.826-1.521,0.03-1.811l14.96-5.082            c0.283-0.096,0.506-0.319,0.602-0.602l5.07-14.924c0.292-0.859,1.502-0.874,1.814-0.021l5.485,14.968            C467.308,266.587,467.523,266.799,467.795,266.894z"/>
									</g>
								</g>
							</g>
						</g>
					</g>
					<g>
						<g>
							<g>
								<g>
									<g>
										<path style="fill:#F7EDE5;" d="M187.593,445.518l14.539,5.074c0.849,0.296,0.864,1.492,0.022,1.809l-14.583,5.491            c-0.259,0.098-0.464,0.302-0.561,0.561l-5.526,14.674c-0.313,0.831-1.488,0.831-1.801,0l-5.526-14.674            c-0.098-0.259-0.302-0.464-0.561-0.561l-14.55-5.479c-0.845-0.318-0.826-1.521,0.03-1.811l14.96-5.082            c0.283-0.096,0.505-0.318,0.602-0.602l5.07-14.924c0.292-0.859,1.502-0.874,1.814-0.022l5.485,14.968            C187.106,445.211,187.321,445.423,187.593,445.518z"/>
									</g>
								</g>
							</g>
						</g>
					</g>
				</g>
			</g>
		</g>
	</g>
</g>
<g>
</g>
<g>
</g>
<g>
</g>
<g>
</g>
<g>
</g>
<g>
</g>
<g>
</g>
<g>
</g>
<g>
</g>
<g>
</g>
<g>
</g>
<g>
</g>
<g>
</g>
<g>
</g>
<g>
</g>
</svg>
