<svg height="512" viewBox="0 0 512 512" width="512" xmlns="http://www.w3.org/2000/svg"><g id="Going_To_School" data-name="Going To School"><path d="m184 59.41a38.32 38.32 0 0 0 -31.18 24.44c-9.21 23 13.47 25.27 13.82 37.79s-24.8 29.16-20.9 51.48 23.08 21.22 24.83 31.33-6.97 41.92 24.64 40.55 49.66-11.22 54.45-29.15.9-162.85-65.66-156.44z" fill="#383333"/><path d="m258.47 360.27c-18.78-66.32-16.33-122.42 9.1-136.6 10.2-5.69 25.86-3.91 57-.6 26.65 2.82 40 4.23 49.59 11.33 17.46 12.89 12.77 31 22.67 80.06 13.52 67 33.85 91.59 17.71 119-6.72 11.42-18.22 18.15-19.84 19.13-19.23 11.65-39.13 9.09-45.69 8.15-18.25-2.63-30.57-11.34-37.9-16.65-35.77-25.93-48.48-67.24-52.64-83.82z" fill="#ffb833"/><path d="m93 243.31a25.09 25.09 0 0 1 6.41 4.27 26.6 26.6 0 0 1 7.75 13.42 19.22 19.22 0 0 1 14.36-18.24 18.36 18.36 0 0 1 -8.73-3.68 18.93 18.93 0 0 1 -6.79-11.69 16.82 16.82 0 0 1 -2.91 9.12 17.14 17.14 0 0 1 -10.09 6.8z" fill="#ffb833"/><path d="m116.71 256.75a8.32 8.32 0 0 1 2.16 1.44 9 9 0 0 1 2.62 4.51 6.45 6.45 0 0 1 4.84-6.15 6.13 6.13 0 0 1 -3-1.24 6.44 6.44 0 0 1 -2.29-3.93 5.64 5.64 0 0 1 -1 3.08 5.78 5.78 0 0 1 -3.33 2.29z" fill="#ffb833"/><path d="m91.48 232.29a5.91 5.91 0 0 1 1.47 1 6.06 6.06 0 0 1 1.79 3.09 4.43 4.43 0 0 1 3.31-4.21 4.23 4.23 0 0 1 -2-.85 4.43 4.43 0 0 1 -1.57-2.68 3.77 3.77 0 0 1 -.67 2.1 3.91 3.91 0 0 1 -2.33 1.55z" fill="#ffb833"/><path d="m364.05 132.42a18.42 18.42 0 0 1 4.65 3.1 19.34 19.34 0 0 1 5.64 9.73 14.28 14.28 0 0 1 3.53-9 14.11 14.11 0 0 1 6.91-4.23 13.45 13.45 0 0 1 -6.35-2.68 13.82 13.82 0 0 1 -4.93-8.46 12.22 12.22 0 0 1 -2.12 6.62 12.37 12.37 0 0 1 -7.33 4.92z" fill="#ffb833"/><path d="m381.29 142.19a6.5 6.5 0 0 1 1.57 1 6.59 6.59 0 0 1 1.9 3.28 4.78 4.78 0 0 1 1.19-3 4.67 4.67 0 0 1 2.32-1.42 4.54 4.54 0 0 1 -2.13-.91 4.66 4.66 0 0 1 -1.67-2.85 4.1 4.1 0 0 1 -.71 2.23 4.2 4.2 0 0 1 -2.47 1.67z" fill="#ffb833"/><path d="m363 124.42a4.28 4.28 0 0 1 1.07.71 4.46 4.46 0 0 1 1.3 2.25 3.32 3.32 0 0 1 .81-2.09 3.37 3.37 0 0 1 1.6-1 3.09 3.09 0 0 1 -1.47-.62 3.16 3.16 0 0 1 -1.13-2 2.78 2.78 0 0 1 -2.18 2.67z" fill="#ffb833"/><path d="m97.34 87.13a18.42 18.42 0 0 1 4.65 3.1 19.42 19.42 0 0 1 5.65 9.73 14.31 14.31 0 0 1 3.52-9 14.11 14.11 0 0 1 6.91-4.23 13.47 13.47 0 0 1 -6.34-2.73 13.8 13.8 0 0 1 -4.94-8.46 12.13 12.13 0 0 1 -2.12 6.62 12.42 12.42 0 0 1 -7.33 4.97z" fill="#ffb833"/><path d="m114.58 96.9a6.23 6.23 0 0 1 3.47 4.32 4.72 4.72 0 0 1 3.52-4.47 4.39 4.39 0 0 1 -2.14-.9 4.66 4.66 0 0 1 -1.67-2.85 4 4 0 0 1 -.71 2.23 4.25 4.25 0 0 1 -2.47 1.67z" fill="#ffb833"/><path d="m96.24 79.13a4.28 4.28 0 0 1 1.07.71 4.48 4.48 0 0 1 1.3 2.24 3.19 3.19 0 0 1 2.39-3.08 3.09 3.09 0 0 1 -1.47-.62 3.16 3.16 0 0 1 -1.13-2 2.9 2.9 0 0 1 -.47 1.62 3 3 0 0 1 -1.69 1.13z" fill="#ffb833"/><circle cx="251.82" cy="123.17" fill="#ffdb99" r="71.12"/><path d="m283.2 184.09c.83 12.95 4.2 31.92 18.27 44 15.72 13.48 31 6.58 42 17.6 16.27 16.43.28 50-6.09 88.38-4.52 27.18-6 67.51 10.82 120.33 0 0-87 34.41-175.3 0 0 0 4.57-13.09 9-31 6-24 7.45-44.21 8.25-59.94 4-77.73-12.51-102.44 5.08-118.45 13.89-12.64 32.2-4.53 42-21 0 0 2.37-4 7.45-34.52z" fill="#ffdb99"/><path d="m281.51 195.15c-50.78 16.89-72.9 9.24-83.76-.51-30.03-26.94-17.05-108.64-17.05-108.64s56.9-64 112.77-20.47c3.91 3 20 15 26.41 36.27 9.34 31.11-5.88 68.42-38.37 93.35z" fill="#ffdb99"/><path d="m319.48 236.83s34.11 5.53 43.76 23.3 29.44 111.68 29.44 111.68l-42.16 12.19s-25.56-67-31-91.88-11.82-41.54-.04-55.29z" fill="#ffdb99"/><path d="m229.06 234.31c-26.61-1.5-40.45 6.29-47.89 12.83-15.7 13.81-15.1 32.78-30.5 110.89-2 10.22-3.76 18.67-5 24.44l31.22 11a181.24 181.24 0 0 0 17.43-27.92c10.89-21.61 13.49-37.72 22.24-77.38 2.81-12.55 6.99-31.11 12.5-53.86z" fill="#ffdb99"/><path d="m263.6 119.45a20.08 20.08 0 0 0 -11.78-2.94c-2.81.13-6.61.31-7.62 2.59a3.06 3.06 0 0 0 .3 3.08c1.44 1.67 4.63-.15 10-.58 7-.57 11.78 1.77 12.17.73.24-.75-2.13-2.28-3.07-2.88z" fill="#383333"/><path d="m191.26 121.08a20.07 20.07 0 0 1 11.85-2.67c2.8.2 6.6.47 7.55 2.78a3.07 3.07 0 0 1 -.37 3.08c-1.48 1.63-4.62-.27-9.94-.83-7-.74-11.82 1.49-12.19.44-.26-.76 2.15-2.23 3.1-2.8z" fill="#383333"/><path d="m227.68 150c-2.89 0-7.29-.3-8-2.09-.88-2.29 3.52-11.93 4.41-13.84a.5.5 0 1 1 .9.42c-2 4.27-4.94 11.6-4.38 13.06.5 1.28 5.7 1.58 9.24 1.39a.49.49 0 0 1 .53.47.51.51 0 0 1 -.47.53c-.39.06-1.21.06-2.23.06z" fill="#383333"/><ellipse cx="263.35" cy="151.36" fill="#ffc871" rx="4.86" ry="7.81" transform="matrix(.011 -1 1 .011 109.11 413.04)"/><ellipse cx="200.17" cy="155.33" fill="#ffc871" rx="4.86" ry="7.81" transform="matrix(.011 -1 1 .011 42.65 353.78)"/><path d="m283.32 124.22a13.34 13.34 0 0 1 9.22-5.33 10.28 10.28 0 0 1 6.37 1.33c6.26 4.26 6.68 20.73-2.12 26.35-4.92 3.13-10.88 1.71-12.91 1.13q-.28-11.7-.56-23.48z" fill="#ffdb99"/><path d="m292.19 142.17a.34.34 0 0 1 -.23-.08.36.36 0 0 1 -.07-.52c1.85-2.45 2.51-4.76 1.95-6.87-1-3.67-5.33-5.57-5.37-5.59a.37.37 0 0 1 .1-.72l9.18-1a.38.38 0 0 1 .41.33.37.37 0 0 1 -.33.41l-7.94.86c1.47.86 3.93 2.68 4.68 5.5.62 2.35-.08 4.88-2.09 7.52a.35.35 0 0 1 -.29.16z" fill="#383333"/><path d="m203.69 144.13a5.87 5.87 0 1 1 -.14-8.3 5.89 5.89 0 0 1 .14 8.3z" fill="#383333" fill-rule="evenodd"/><path d="m189.44 136.91c.13-.12 1.43 1.78 2.89 1.52 1.08-.19 1.27-1.41 2.57-2.57a7 7 0 0 1 4-1.65 15.06 15.06 0 0 1 -2.09 3.6c-1.22 1.56-2 2.57-3.18 2.67-2.35.22-4.35-3.41-4.19-3.57z" fill="#383333" fill-rule="evenodd"/><path d="m254.12 141.34a5.87 5.87 0 1 1 -.62-8.28 5.89 5.89 0 0 1 .62 8.28z" fill="#383333" fill-rule="evenodd"/><path d="m259.35 133.46c-.13-.11-1.25 1.9-2.73 1.77-1.09-.09-1.39-1.28-2.79-2.32a7.15 7.15 0 0 0 -4.16-1.27 15.23 15.23 0 0 0 2.41 3.4c1.36 1.44 2.24 2.36 3.41 2.36 2.38.01 4.04-3.8 3.86-3.94z" fill="#383333" fill-rule="evenodd"/><path d="m242 205a.51.51 0 0 1 -.5-.48.5.5 0 0 1 .48-.52c11.28-.64 31.63-6.82 31.83-6.88a.5.5 0 0 1 .29 1c-.2.06-20.66 6.27-32.07 6.91z" fill="#383333"/><path d="m293.67 214.13s11.69 15.41 23.38 17.8 43.48 10.8 50.21 31 17.49 73.22 17.49 73.22-19.61 14.63-51.14 9c0 0 2.83 68 24.09 116.36 0 0-116.9 49.42-194.47-3.19a349.94 349.94 0 0 0 12.54-39.72 349 349 0 0 0 10.32-75.06c-3.71-.09-7.62-.32-11.69-.7a171.09 171.09 0 0 1 -23.4-3.94 534.68 534.68 0 0 1 9.92-56c7.42-31.83 11.47-36 14-38.07 17.88-15 44-6.88 56.5-17.36 4.42-3.72 5.66-13.37 5.66-13.37s32.42 6.14 56.59.03z" fill="#fff3e3"/><path d="m228.71 181.65a14.93 14.93 0 0 1 -2.53-.23.37.37 0 0 1 -.3-.43.38.38 0 0 1 .43-.31c4.48.79 6.93-.84 6.95-.85a.37.37 0 0 1 .52.09.38.38 0 0 1 -.1.53 9.3 9.3 0 0 1 -4.97 1.2z" fill="#383333"/><path d="m343.28 235.29c8.85 7.16-14.52 37.91-21.71 75.7-8.62 45.32 10 79.73 1.06 83.42-6.14 2.53-18.07-11.9-23.91-20.72-24.18-36.51-12.68-80.37-4.78-110.52 1.33-5.08 10-37.19 20.37-37 1.77 0 2.42.81 6.73 2.75 12.96 5.82 18.96 3.69 22.24 6.37z" fill="#ffb833"/><path d="m305.88 383.22s-7.39 9.52 0 36.09-6.79 50.37-6.79 50.37 15.94 6.1 23.74 0c0 0 2.47-26.64-2.48-45.41s-4.06-40.27-4.06-40.27z" fill="#ffb833"/><path d="m311.4 384.33a93.87 93.87 0 0 0 20.19 25.5c19.66 17.43 41.5 21.8 51.28 23.12q2.11-5.58 4.25-11.16a157.85 157.85 0 0 1 -66.69-45.16z" fill="#ffb833"/><path d="m345.25 241.86a.49.49 0 0 1 -.28-.09c-14.44-10-35.65-12.67-35.86-12.69a.51.51 0 0 1 -.44-.56.5.5 0 0 1 .56-.43c.22 0 21.67 2.73 36.31 12.86a.5.5 0 0 1 .12.7.48.48 0 0 1 -.41.21z" fill="#383333"/><path d="m396.15 345.24a.5.5 0 0 1 -.42-.22c-3.17-4.82-5.92-20.57-9.1-38.81-4.47-25.59-10-57.44-18.43-64.46-14.06-11.75-62.97-15.75-63.46-15.75a.5.5 0 0 1 -.46-.54.5.5 0 0 1 .54-.46c2 .16 49.72 4.06 64 16 8.68 7.25 14 38 18.77 65.06 3.16 18.13 5.9 33.79 9 38.43a.5.5 0 0 1 -.14.69.48.48 0 0 1 -.3.06z" fill="#383333"/><path d="m395.18 342.89s12.39.79 13.32 4.51-12.83.6-13.32-4.51z" fill="#383333"/><path d="m350.52 397.36a.5.5 0 0 1 -.5-.46.5.5 0 0 1 .45-.54c33.3-2.93 54.29-28.47 54.5-28.73a.5.5 0 0 1 .78.63c-.21.26-21.47 26.13-55.19 29.09z" fill="#383333"/><path d="m319.25 275.79c11.61 23.73 24.84 39.66 35.26 50.08 16.61 16.62 35.29 28.53 39.42 50.49 1.57 8.35.13 13.33-2 16.64-5.32 8.28-17.66 10.46-25.65 9.73-29.67-2.7-49-50-58.85-74a251.73 251.73 0 0 1 -12-37.51z" fill="#ffdb99"/><path d="m401.87 448.17a.48.48 0 0 1 -.43-.28c-.19-.41-4.69-10-5.75-17.2a.5.5 0 0 1 .42-.57.51.51 0 0 1 .57.43c.85 5.83 4.13 13.49 5.27 16 5.64-9.84 5.31-18.09 4-23.33a24.8 24.8 0 0 0 -4.44-9.37.5.5 0 1 1 .75-.65c.13.14 12.19 14.53.05 34.69a.5.5 0 0 1 -.44.28z" fill="#383333"/><path d="m390.29 455.53a13.25 13.25 0 0 1 -10.26-4.2c-5.89-6.46-4.88-17.94-4.83-18.43a.5.5 0 0 1 .54-.45.5.5 0 0 1 .45.55c0 .11-1 11.53 4.58 17.66a12.3 12.3 0 0 0 9.52 3.87s0 0 0 0a.5.5 0 0 1 .5.5.51.51 0 0 1 -.5.5z" fill="#383333"/><path d="m309.23 394.65a6.89 6.89 0 0 1 -6.58-4.86l-.22-.7a6.88 6.88 0 0 1 4.55-8.61l9.72-3a6.9 6.9 0 0 1 8.61 4.56l.22.7a6.9 6.9 0 0 1 -4.55 8.61l-9.73 3a6.74 6.74 0 0 1 -2.02.3zm9.51-15.48a5.15 5.15 0 0 0 -1.45.22l-9.72 3a4.89 4.89 0 0 0 -3.23 6.11l.22.7a4.87 4.87 0 0 0 6.1 3.23l9.73-3a4.88 4.88 0 0 0 3.23-6.1l-.22-.71a4.86 4.86 0 0 0 -2.38-2.88 5 5 0 0 0 -2.28-.57z" fill="#383333"/><path d="m303 310.41s-25.87-18.41-16.66-28.72c0 0-2.83-6.73 2.66-8.15 0 0-3.19-7.26 2.48-8.85 0 0-2.7-6.2 2.19-7.62s10.16 4.78 13.35 8.24a50.82 50.82 0 0 1 5.78 8s-2.45-9.3 0-11.56 4.45 3.46 7.24 10.5 6.5 13.28 5 20.45-8.04 20.43-22.04 17.71z" fill="#ffdb99"/><path d="m386.65 359.28a.49.49 0 0 1 -.43-.24c-2.8-4.74-12.93-14.88-13-15a.5.5 0 0 1 0-.7.5.5 0 0 1 .71 0c.42.42 10.32 10.34 13.18 15.18a.5.5 0 0 1 -.17.68.48.48 0 0 1 -.29.08z" fill="#383333"/><path d="m215.36 164.88 28.56-2.65s-3.2 13.81-14 15-14.56-12.35-14.56-12.35z" fill="#fff"/><rect fill="#d17352" height="120.8" rx="2.69" transform="matrix(.98 -.199 .199 .98 -56.35 51.25)" width="92.74" x="181.09" y="246.32"/><rect fill="#d89071" height="120.8" rx="2.69" transform="matrix(.98 -.199 .199 .98 -56.84 49.67)" width="92.74" x="172.95" y="247.97"/><path d="m226.69 287.86c-4.69 23.14-13.55 57.42-29.53 87.14-5.75 10.71-13.46 22.76-25.5 24.71-1.39.22-9.93 1.61-17.27-3.72a22.67 22.67 0 0 1 -8.24-12.22c-4-14.3 5.47-28.5 10.63-36.4 11.66-17.84 24.78-39.13 41.3-67.25z" fill="#ffdb99"/><path d="m197.07 283.82s4.79-21.08 8.86-29.23 13.28-11.6 15.67-12 2.9 3.05 2.9 3.05 4.44-5.36 6.79-1.37c0 0 3.86-4.43 6.17-.53 0 0 2.24-3.1 4.75-1.68s2.41 17.88 0 25.72-19 27.23-19 27.23-22.64-4.64-26.14-11.19z" fill="#ffdb99"/><path d="m202 266.11s-.4-9.36 1.57-15.46.4-8.57 2.66-8.86 5.32 4.72 4.14 14.57-5.86 9.55-8.37 9.75z" fill="#ffdb99"/><g fill="#383333"><path d="m206.27 254.32a.39.39 0 0 1 -.2-.06.38.38 0 0 1 -.11-.52c.1-.16 2.56-4.06 4.38-5.52a.38.38 0 0 1 .47.59c-1.73 1.38-4.19 5.29-4.22 5.33a.38.38 0 0 1 -.32.18z"/><path d="m221.6 250.63a.39.39 0 0 1 -.2-.06.38.38 0 0 1 -.11-.52l2.89-4.56a.38.38 0 0 1 .52-.11.36.36 0 0 1 .12.51l-2.9 4.57a.37.37 0 0 1 -.32.17z"/><path d="m230.73 250.63a.38.38 0 0 1 -.34-.41l.57-5.94a.38.38 0 0 1 .41-.34.39.39 0 0 1 .34.41l-.57 5.94a.38.38 0 0 1 -.41.34z"/><path d="m238.08 250.63a.38.38 0 0 1 -.38-.34l-.62-6.46a.37.37 0 0 1 .34-.41.39.39 0 0 1 .41.33l.62 6.47a.38.38 0 0 1 -.34.41z"/><path d="m289.71 288.44a.38.38 0 0 1 -.34-.2l-3.37-6.37a.37.37 0 0 1 .16-.51.36.36 0 0 1 .5.16l3.37 6.37a.39.39 0 0 1 -.16.51.38.38 0 0 1 -.16.04z"/><path d="m291.83 278.7a.36.36 0 0 1 -.32-.18l-2.84-4.78a.4.4 0 0 1 .13-.52.38.38 0 0 1 .52.13l2.83 4.78a.38.38 0 0 1 -.13.52.41.41 0 0 1 -.19.05z"/><path d="m295.4 270.2a.35.35 0 0 1 -.3-.16l-4.22-5.93a.38.38 0 0 1 .62-.44l4.21 5.94a.37.37 0 0 1 -.09.52.34.34 0 0 1 -.22.07z"/><path d="m154.07 352.1a.47.47 0 0 1 -.27-.08.5.5 0 0 1 -.14-.69l6.41-9.92a.5.5 0 0 1 .69-.15.51.51 0 0 1 .15.7l-6.41 9.92a.53.53 0 0 1 -.43.22z"/><path d="m207.42 64.29s-11.75 33.76-28.94 43.31-17.77-20.2-5.61-31.18 23.65-13.27 34.55-12.13z"/><path d="m186 64s63.84-52 117.51-22.3 17.9 85.84 25.34 98.36-19.46-6-26.56-15.15-14.2-5.31-19-.69-22.37-1.75-28.8-23.72-40.64-10.08-55.6-17.26-14.78-12.48-12.89-19.24z"/><path d="m283.88 147.7s-6.93 54.82.51 71.29 27.84 21 35.09 17.84 17.13-12.49 20.73-12.05 19.77 2.94 23.71 4.46c0 0 17.88-35.51-5-51.93s-25.62-93.13-25.62-93.13l-32.9 37.46s5.15 6.71 3.07 14.42-6.7 10.4-10.1 12-9.49-.36-9.49-.36z"/></g><path d="m281.83 115.85a14.47 14.47 0 0 1 -4.59-.72c-7.33-2.44-11.4-10.74-15.34-18.77-3.12-6.36-6.34-12.91-11.1-16.36-14-10.13-46.61-6.31-46.94-6.27a.5.5 0 0 1 -.12-1c1.36-.17 33.31-3.91 47.65 6.45 5 3.58 8.24 10.26 11.41 16.72 3.84 7.85 7.82 16 14.75 18.26 4.31 1.43 9.42.58 15.64-2.61a.5.5 0 1 1 .45.89c-4.42 2.29-8.32 3.41-11.81 3.41z" fill="#fff"/><path d="m296.65 102.29a27.3 27.3 0 0 1 -11.27-2.29c-10.67-4.8-14.65-15.5-14.69-15.61a.5.5 0 1 1 .94-.34c0 .1 3.88 10.42 14.17 15 7.36 3.3 16.18 3 26.21-1a.5.5 0 0 1 .65.28.49.49 0 0 1 -.28.65 42.69 42.69 0 0 1 -15.73 3.31z" fill="#fff"/><path d="m307.75 224.26a24.18 24.18 0 0 1 -2.92-.17c-9-1-14.58-11-16.5-29.63a163 163 0 0 1 -.21-27.5.5.5 0 0 1 1 .09c-.05.54-4.57 53.74 15.83 56 9.89 1.13 17.91-3.94 25-8.4 7.81-4.92 15.18-9.57 23.09-4.27a.5.5 0 0 1 -.56.83c-7.37-4.94-14.15-.67-22 4.28-6.48 4.16-13.84 8.77-22.73 8.77z" fill="#fff"/><path d="m316.33 193.47a8.79 8.79 0 0 1 -4.38-1.05c-10-5.68-3.55-70-3.28-72.79a.51.51 0 0 1 .55-.45.5.5 0 0 1 .45.55c0 .17-1.71 16.87-2.17 34-.77 28.47 2.26 36.26 4.94 37.79 3.9 2.21 9.68 0 15.8-2.27 8.39-3.16 17.91-6.75 22.72 2.47a.51.51 0 0 1 -.21.68.5.5 0 0 1 -.67-.22c-4.41-8.43-13.09-5.16-21.49-2-4.41 1.7-8.65 3.29-12.26 3.29z" fill="#fff"/><path d="m309.17 73a.51.51 0 0 1 -.42-.23c-13.77-21.55-34-25.09-48.58-24.27a84.43 84.43 0 0 0 -28.66 7 .5.5 0 0 1 -.67-.23.51.51 0 0 1 .23-.67 85.6 85.6 0 0 1 29-7.13c14.83-.84 35.45 2.77 49.48 24.73a.51.51 0 0 1 -.15.7.52.52 0 0 1 -.23.1z" fill="#fff"/><path d="m168 103.66a.5.5 0 0 1 -.21-1c15.55-7.08 22.68-30.13 22.75-30.36a.51.51 0 0 1 .63-.33.5.5 0 0 1 .33.62 72.91 72.91 0 0 1 -5.5 12.75c-3.47 6.24-9.36 14.47-17.72 18.27a.46.46 0 0 1 -.28.05z" fill="#fff"/><path d="m164.55 96.22a.5.5 0 0 1 -.5-.47c-1-19 18-23.71 18.21-23.75a.5.5 0 0 1 .23 1c-.75.18-18.4 4.59-17.44 22.72a.5.5 0 0 1 -.47.53z" fill="#fff"/><path d="m192.36 226.65h-.15a.51.51 0 0 1 -.33-.63c7-21.45-2.38-28.42-13.21-36.48a94.24 94.24 0 0 1 -10.29-8.46c-13.91-13.77 3.31-48.18 4.05-49.64a.49.49 0 0 1 .67-.22.5.5 0 0 1 .22.67c-.18.35-17.63 35.22-4.23 48.48a92.45 92.45 0 0 0 10.17 8.36c11.15 8.3 20.77 15.46 13.58 37.6a.5.5 0 0 1 -.48.32z" fill="#fff"/></g></svg>